<svg xmlns="http://www.w3.org/2000/svg" viewBox="0 0 512 512" width="256" height="256" role="img" aria-label="tela"><rect width="512" height="512" fill="#4f46e5"/><path fill="#fbfaf6" d="M150 240 L196 188 Q205 178 218 178 H356 Q378 178 366 200 L332 240 Q325 250 312 250 H162 Q140 250 150 240 Z"/><path fill="#fbfaf6" d="M238 250 H296 Q300 250 300 268 V396 Q300 414 281 410 L245 402 Q226 398 226 380 V272 Q226 252 238 250 Z"/><path fill="#1e1b4b" fill-opacity="0.40" d="M250 250 H312 Q325 250 332 240 L304 270 Q297 278 297 290 V324 Z"/></svg>
